<svg width="40" height="40" viewBox="0 0 40 40" fill="none" xmlns="http://www.w3.org/2000/svg">
<path d="M34.8751 10.6C29.6501 2.49998 18.9501 0.0999836 10.6751 5.12498C2.60012 10.15 0.000124633 21.1 5.22512 29.175L5.65012 29.825L3.90012 36.375L10.4501 34.625L11.1001 35.05C13.9251 36.575 17.0001 37.45 20.0501 37.45C23.3251 37.45 26.6001 36.575 29.4251 34.825C37.5001 29.575 39.9001 18.85 34.8751 10.55V10.6ZM30.3001 27.45C29.4251 28.75 28.3251 29.625 26.8001 29.85C25.9251 29.85 24.8251 30.275 20.4751 28.55C16.7751 26.8 13.7001 23.95 11.5251 20.675C10.2251 19.15 9.55012 17.175 9.35012 15.2C9.35012 13.45 10.0001 11.925 11.1001 10.825C11.5251 10.4 11.9751 10.175 12.4001 10.175H13.5001C13.9251 10.175 14.3751 10.175 14.6001 11.05C15.0251 12.15 16.1251 14.775 16.1251 15C16.3501 15.225 16.2501 16.9 15.2501 17.85C14.7001 18.475 14.6001 18.5 14.8251 18.95C15.7001 20.25 16.8001 21.575 17.8751 22.675C19.1751 23.775 20.5001 24.65 22.0251 25.3C22.4501 25.525 22.9001 25.525 23.1251 25.075C23.3501 24.65 24.4251 23.55 24.8751 23.1C25.3001 22.675 25.5251 22.675 25.9751 22.875L29.4751 24.625C29.9001 24.85 30.3501 25.05 30.5751 25.275C30.8001 25.925 30.8001 26.8 30.3501 27.45H30.3001Z" fill="white"/>
</svg>
