<svg width="11" height="14" viewBox="0 0 11 14" fill="none" xmlns="http://www.w3.org/2000/svg">
<g clip-path="url(#clip0_429_334)">
<path d="M9.49555 7.23423H9.21766V2.43024C9.21712 1.87814 8.99759 1.3488 8.60724 0.958365C8.21688 0.567933 7.68759 0.3483 7.13549 0.347656C6.14665 0.347656 5.32026 1.04198 5.10921 1.96803H4.35939C4.14376 1.96803 3.93696 2.05368 3.78449 2.20615C3.63202 2.35863 3.54636 2.56542 3.54636 2.78105C3.54636 3.00304 3.72704 3.1833 3.94903 3.1833H6.78994C6.89659 3.1832 6.99885 3.14078 7.07426 3.06537C7.14967 2.98995 7.19209 2.8877 7.1922 2.78105C7.19225 2.6743 7.17127 2.56859 7.13046 2.46995C7.08964 2.37131 7.02979 2.28168 6.95433 2.20618C6.87887 2.13068 6.78927 2.07079 6.69065 2.02992C6.59203 1.98906 6.48633 1.96803 6.37958 1.96803H5.95342C6.13896 1.49488 6.59752 1.15784 7.13549 1.15784C7.47278 1.15827 7.79612 1.29248 8.03459 1.53102C8.27305 1.76956 8.40715 2.09295 8.40748 2.43024V7.23423H0.838321C0.699637 7.23806 0.567917 7.29584 0.471178 7.39528C0.374438 7.49473 0.320312 7.62799 0.320312 7.76672C0.320312 7.90546 0.374438 8.03872 0.471178 8.13817C0.567917 8.23761 0.699637 8.29539 0.838321 8.29922H1.11581V9.20177C1.11622 9.74261 1.26828 10.2725 1.5547 10.7313C1.84112 11.1901 2.25044 11.5593 2.73618 11.7972V12.5004C2.73618 12.7153 2.82154 12.9214 2.97348 13.0733C3.12542 13.2253 3.33149 13.3106 3.54636 13.3106C3.76124 13.3106 3.96731 13.2253 4.11925 13.0733C4.27119 12.9214 4.35655 12.7153 4.35655 12.5004V12.0953H6.32449C6.34393 12.0953 6.36297 12.0929 6.38201 12.0925V12.5004C6.38201 12.7153 6.46737 12.9214 6.61931 13.0733C6.77125 13.2253 6.97732 13.3106 7.1922 13.3106C7.40707 13.3106 7.61315 13.2253 7.76508 13.0733C7.91702 12.9214 8.00238 12.7153 8.00238 12.5004V11.5562C8.37812 11.2892 8.6845 10.9361 8.89592 10.5265C9.10734 10.1169 9.21766 9.6627 9.21766 9.20177V8.29922H9.49555C9.63678 8.29922 9.77222 8.24312 9.87208 8.14325C9.97195 8.04339 10.028 7.90795 10.028 7.76672C10.028 7.6255 9.97195 7.49006 9.87208 7.39019C9.77222 7.29033 9.63678 7.23423 9.49555 7.23423Z" fill="#242424" fill-opacity="0.8"/>
</g>
<defs>
<clipPath id="clip0_429_334">
<rect width="10" height="12.963" fill="white" transform="translate(0.166748 0.347656)"/>
</clipPath>
</defs>
</svg>
