<svg width="18" height="13" viewBox="0 0 18 13" fill="none" xmlns="http://www.w3.org/2000/svg">
<path d="M15.008 6.441H2.65921C2.00419 6.441 1.376 6.7012 0.912829 7.16437C0.449659 7.62754 0.189453 8.25573 0.189453 8.91076V10.1456C0.189453 10.3094 0.254505 10.4664 0.370297 10.5822C0.486089 10.698 0.643138 10.7631 0.806893 10.7631H1.42433V11.3805C1.42433 11.708 1.55444 12.0221 1.78602 12.2537C2.0176 12.4853 2.3317 12.6154 2.65921 12.6154C2.98672 12.6154 3.30082 12.4853 3.5324 12.2537C3.76399 12.0221 3.89409 11.708 3.89409 11.3805V10.7631H13.7731V11.3805C13.7731 11.708 13.9032 12.0221 14.1348 12.2537C14.3664 12.4853 14.6805 12.6154 15.008 12.6154C15.3355 12.6154 15.6496 12.4853 15.8812 12.2537C16.1128 12.0221 16.2429 11.708 16.2429 11.3805V10.7631H16.8603C17.0241 10.7631 17.1811 10.698 17.2969 10.5822C17.4127 10.4664 17.4778 10.3094 17.4778 10.1456V8.91076C17.4778 8.25573 17.2176 7.62754 16.7544 7.16437C16.2912 6.7012 15.663 6.441 15.008 6.441ZM4.51153 2.73636H7.59873C7.76248 2.73636 7.91953 2.80141 8.03532 2.9172C8.15112 3.033 8.21617 3.19004 8.21617 3.3538C8.21617 3.51755 8.15112 3.6746 8.03532 3.79039C7.91953 3.90619 7.76248 3.97124 7.59873 3.97124H4.51153C4.34777 3.97124 4.19073 3.90619 4.07493 3.79039C3.95914 3.6746 3.89409 3.51755 3.89409 3.3538C3.89409 3.19004 3.95914 3.033 4.07493 2.9172C4.19073 2.80141 4.34777 2.73636 4.51153 2.73636ZM10.0685 2.73636H13.1557C13.3194 2.73636 13.4765 2.80141 13.5923 2.9172C13.7081 3.033 13.7731 3.19004 13.7731 3.3538C13.7731 3.51755 13.7081 3.6746 13.5923 3.79039C13.4765 3.90619 13.3194 3.97124 13.1557 3.97124H10.0685C9.90473 3.97124 9.74768 3.90619 9.63189 3.79039C9.5161 3.6746 9.45105 3.51755 9.45105 3.3538C9.45105 3.19004 9.5161 3.033 9.63189 2.9172C9.74768 2.80141 9.90473 2.73636 10.0685 2.73636ZM3.28221 5.20612H14.385C14.7295 5.20612 15.008 4.92765 15.008 4.58312V1.50148C15.008 1.17397 14.8779 0.859874 14.6463 0.628289C14.4147 0.396704 14.1006 0.266602 13.7731 0.266602H3.89409C3.56658 0.266602 3.25248 0.396704 3.0209 0.628289C2.78931 0.859874 2.65921 1.17397 2.65921 1.50148V4.58312C2.65921 4.92765 2.93768 5.20612 3.28221 5.20612Z" fill="#242424" fill-opacity="0.8"/>
</svg>
