<svg width="18" height="19" viewBox="0 0 18 19" fill="none" xmlns="http://www.w3.org/2000/svg">
<g clip-path="url(#clip0_367_48)">
<path d="M13.7812 0.5H4.21875C1.8888 0.5 0 2.3888 0 4.71875V14.2812C0 16.6112 1.8888 18.5 4.21875 18.5H13.7812C16.1112 18.5 18 16.6112 18 14.2812V4.71875C18 2.3888 16.1112 0.5 13.7812 0.5Z" fill="url(#paint0_radial_367_48)"/>
<path d="M13.7812 0.5H4.21875C1.8888 0.5 0 2.3888 0 4.71875V14.2812C0 16.6112 1.8888 18.5 4.21875 18.5H13.7812C16.1112 18.5 18 16.6112 18 14.2812V4.71875C18 2.3888 16.1112 0.5 13.7812 0.5Z" fill="url(#paint1_radial_367_48)"/>
<path d="M9.00063 2.46875C7.09109 2.46875 6.85139 2.47712 6.10144 2.51122C5.35289 2.54553 4.84193 2.66401 4.39488 2.83789C3.93237 3.01747 3.54009 3.25773 3.1493 3.64866C2.75815 4.03953 2.51789 4.4318 2.33775 4.89411C2.16338 5.3413 2.04476 5.85247 2.01108 6.60066C1.97754 7.35069 1.96875 7.59045 1.96875 9.50007C1.96875 11.4097 1.97719 11.6486 2.01122 12.3986C2.04567 13.1471 2.16415 13.6581 2.33789 14.1051C2.51761 14.5676 2.75787 14.9599 3.1488 15.3507C3.53953 15.7419 3.9318 15.9827 4.39397 16.1622C4.84137 16.3361 5.3524 16.4546 6.1008 16.4889C6.85083 16.523 7.09031 16.5314 8.99979 16.5314C10.9095 16.5314 11.1485 16.523 11.8984 16.4889C12.647 16.4546 13.1585 16.3361 13.6059 16.1622C14.0682 15.9827 14.4599 15.7419 14.8506 15.3507C15.2417 14.9599 15.4819 14.5676 15.6621 14.1053C15.8349 13.6581 15.9536 13.147 15.9888 12.3987C16.0225 11.6488 16.0312 11.4097 16.0312 9.50007C16.0312 7.59045 16.0225 7.35083 15.9888 6.6008C15.9536 5.85226 15.8349 5.34137 15.6621 4.89432C15.4819 4.4318 15.2417 4.03953 14.8506 3.64866C14.4595 3.25759 14.0683 3.01733 13.6055 2.83796C13.1572 2.66401 12.646 2.54546 11.8974 2.51122C11.1474 2.47712 10.9086 2.46875 8.99845 2.46875H9.00063ZM8.36986 3.73585C8.5571 3.73557 8.766 3.73585 9.00063 3.73585C10.878 3.73585 11.1005 3.7426 11.8419 3.77628C12.5274 3.80764 12.8995 3.92218 13.1474 4.01844C13.4755 4.14584 13.7095 4.29821 13.9554 4.54437C14.2015 4.79047 14.3538 5.02482 14.4816 5.35297C14.5778 5.60047 14.6925 5.97256 14.7237 6.65811C14.7574 7.39934 14.7647 7.62195 14.7647 9.49845C14.7647 11.375 14.7574 11.5976 14.7237 12.3388C14.6924 13.0243 14.5778 13.3964 14.4816 13.644C14.3542 13.9722 14.2015 14.2058 13.9554 14.4518C13.7093 14.6979 13.4757 14.8501 13.1474 14.9776C12.8998 15.0743 12.5274 15.1886 11.8419 15.2199C11.1007 15.2536 10.878 15.2609 9.00063 15.2609C7.12315 15.2609 6.90061 15.2536 6.15945 15.2199C5.4739 15.1883 5.1018 15.0737 4.85374 14.9775C4.52566 14.85 4.29124 14.6977 4.04515 14.4516C3.79905 14.2055 3.64676 13.9717 3.519 13.6434C3.42274 13.3959 3.30806 13.0238 3.27684 12.3382C3.24316 11.597 3.23641 11.3744 3.23641 9.4967C3.23641 7.61907 3.24316 7.39759 3.27684 6.65635C3.3082 5.9708 3.42274 5.59871 3.519 5.35086C3.64648 5.02271 3.79905 4.78836 4.04522 4.54227C4.29131 4.29617 4.52566 4.1438 4.85381 4.01612C5.10166 3.91944 5.4739 3.80518 6.15945 3.77368C6.80808 3.74436 7.05945 3.73557 8.36986 3.73409V3.73585ZM12.7539 4.90332C12.2881 4.90332 11.9102 5.2809 11.9102 5.74679C11.9102 6.21261 12.2881 6.59054 12.7539 6.59054C13.2197 6.59054 13.5977 6.21261 13.5977 5.74679C13.5977 5.28097 13.2197 4.90304 12.7539 4.90304V4.90332ZM9.00063 5.88917C7.00657 5.88917 5.3898 7.50594 5.3898 9.50007C5.3898 11.4942 7.00657 13.1102 9.00063 13.1102C10.9948 13.1102 12.611 11.4942 12.611 9.50007C12.611 7.50601 10.9946 5.88917 9.00049 5.88917H9.00063ZM9.00063 7.15627C10.295 7.15627 11.3444 8.20555 11.3444 9.50007C11.3444 10.7945 10.295 11.8439 9.00063 11.8439C7.70618 11.8439 6.65691 10.7945 6.65691 9.50007C6.65691 8.20555 7.70618 7.15627 9.00063 7.15627Z" fill="white"/>
</g>
<defs>
<radialGradient id="paint0_radial_367_48" cx="0" cy="0" r="1" gradientUnits="userSpaceOnUse" gradientTransform="translate(4.78125 19.8864) rotate(-90) scale(17.8393 16.592)">
<stop stop-color="#FFDD55"/>
<stop offset="0.1" stop-color="#FFDD55"/>
<stop offset="0.5" stop-color="#FF543E"/>
<stop offset="1" stop-color="#C837AB"/>
</radialGradient>
<radialGradient id="paint1_radial_367_48" cx="0" cy="0" r="1" gradientUnits="userSpaceOnUse" gradientTransform="translate(-3.01507 1.79663) rotate(78.681) scale(7.97428 32.8702)">
<stop stop-color="#3771C8"/>
<stop offset="0.128" stop-color="#3771C8"/>
<stop offset="1" stop-color="#6600FF" stop-opacity="0"/>
</radialGradient>
<clipPath id="clip0_367_48">
<rect width="18" height="18" fill="white" transform="translate(0 0.5)"/>
</clipPath>
</defs>
</svg>
