<svg width="26" height="26" viewBox="0 0 26 26" fill="none" xmlns="http://www.w3.org/2000/svg">
<g clip-path="url(#clip0_429_295)">
<path d="M1.03345 12.522C1.03286 14.6517 1.58599 16.7311 2.63774 18.564L0.932861 24.8263L7.30317 23.146C9.06513 24.1109 11.0393 24.6165 13.0454 24.6167H13.0506C19.6732 24.6167 25.0641 19.1952 25.0669 12.5316C25.0682 9.30254 23.8194 6.26618 21.5504 3.98179C19.2819 1.69759 16.2648 0.438974 13.0501 0.4375C6.42681 0.4375 1.03628 5.85866 1.03354 12.522" fill="url(#paint0_linear_429_295)"/>
<path d="M0.604492 12.518C0.603809 14.7243 1.17676 16.8781 2.26602 18.7766L0.5 25.2634L7.09873 23.5228C8.91689 24.5201 10.964 25.0459 13.047 25.0467H13.0523C19.9125 25.0467 25.4971 19.4302 25.5 12.528C25.5012 9.18296 24.2074 6.03745 21.8574 3.67122C19.5071 1.30528 16.3821 0.00137543 13.0523 0C6.19101 0 0.607227 5.61569 0.604492 12.518ZM4.53428 18.4496L4.28789 18.0562C3.25215 16.3994 2.70547 14.4848 2.70625 12.5188C2.7084 6.78176 7.34941 2.11423 13.0563 2.11423C15.8199 2.11541 18.4172 3.19925 20.3707 5.16572C22.3241 7.13239 23.399 9.74669 23.3983 12.5272C23.3958 18.2642 18.7547 22.9324 13.0523 22.9324H13.0482C11.1915 22.9314 9.37051 22.4297 7.78242 21.4818L7.40449 21.2563L3.48867 22.2891L4.53428 18.4496Z" fill="url(#paint1_linear_429_295)"/>
<path d="M9.94116 7.28425C9.70815 6.76326 9.46294 6.75274 9.24136 6.74361C9.05991 6.73575 8.85249 6.73634 8.64526 6.73634C8.43784 6.73634 8.10083 6.81484 7.81597 7.12775C7.53081 7.44095 6.72729 8.19783 6.72729 9.73723C6.72729 11.2766 7.84185 12.7645 7.99722 12.9734C8.15278 13.182 10.1489 16.4422 13.3102 17.6964C15.9375 18.7386 16.4722 18.5313 17.0424 18.4791C17.6127 18.427 18.8827 17.7224 19.1417 16.9917C19.401 16.2612 19.401 15.635 19.3233 15.5041C19.2456 15.3737 19.0381 15.2954 18.7271 15.139C18.4161 14.9826 16.8869 14.2256 16.6018 14.1211C16.3167 14.0168 16.1093 13.9647 15.9019 14.278C15.6945 14.5908 15.0989 15.2954 14.9173 15.5041C14.736 15.7133 14.5544 15.7393 14.2435 15.5828C13.9323 15.4258 12.9306 15.0958 11.7422 14.03C10.8176 13.2006 10.1934 12.1764 10.012 11.8631C9.83052 11.5502 9.99253 11.3807 10.1485 11.2248C10.2882 11.0846 10.4596 10.8594 10.6153 10.6768C10.7704 10.494 10.8221 10.3636 10.9258 10.155C11.0296 9.9461 10.9777 9.76337 10.9 9.60686C10.8221 9.45036 10.2177 7.9029 9.94116 7.28425Z" fill="white"/>
</g>
<defs>
<linearGradient id="paint0_linear_429_295" x1="1207.64" y1="2439.32" x2="1207.64" y2="0.4375" gradientUnits="userSpaceOnUse">
<stop stop-color="#1FAF38"/>
<stop offset="1" stop-color="#60D669"/>
</linearGradient>
<linearGradient id="paint1_linear_429_295" x1="1250.5" y1="2526.34" x2="1250.5" y2="0" gradientUnits="userSpaceOnUse">
<stop stop-color="#F9F9F9"/>
<stop offset="1" stop-color="white"/>
</linearGradient>
<clipPath id="clip0_429_295">
<rect width="25" height="25.3472" fill="white" transform="translate(0.5)"/>
</clipPath>
</defs>
</svg>
