<svg width="25" height="19" viewBox="0 0 25 19" fill="none" xmlns="http://www.w3.org/2000/svg">
<g clip-path="url(#clip0_368_57)">
<path d="M24.4478 3.45263C24.3044 2.9227 24.0247 2.43959 23.6365 2.05139C23.2483 1.66319 22.7652 1.38346 22.2353 1.24004C20.2953 0.710938 12.4873 0.710938 12.4873 0.710938C12.4873 0.710938 4.67891 0.726953 2.73888 1.25605C2.20895 1.39948 1.72584 1.67923 1.33766 2.06745C0.949473 2.45566 0.669765 2.9388 0.526384 3.46874C-0.0604303 6.9158 -0.288066 12.1683 0.542498 15.4775C0.685893 16.0074 0.965608 16.4905 1.35379 16.8787C1.74197 17.2669 2.22507 17.5467 2.75499 17.6901C4.69502 18.2192 12.5032 18.2192 12.5032 18.2192C12.5032 18.2192 20.3113 18.2192 22.2512 17.6901C22.7812 17.5467 23.2643 17.267 23.6525 16.8788C24.0407 16.4906 24.3204 16.0074 24.4638 15.4775C25.0828 12.0256 25.2735 6.77625 24.4478 3.45263Z" fill="#FF0000"/>
<path d="M10.002 13.2164L16.4793 9.46464L10.002 5.71289V13.2164Z" fill="white"/>
</g>
<defs>
<clipPath id="clip0_368_57">
<rect width="25" height="17.5781" fill="white" transform="translate(0 0.710938)"/>
</clipPath>
</defs>
</svg>
